PathFileType   4   (X/Y/Z)																																																																																																																						
DataRate	CameraRate	NumFrames	NumMarkers	Units	OrigDataRate	OrigDataStartFrame	OrigNumFrames																																																																																																															
120	120	7	37	mm	120	1	116																																																																																																															
Frame#	Time	Sternum	R.Acromium	L.Acromium	Top.Head	R.ASIS	L.ASIS	V.Sacral	R.Thigh.Upper	R.Thigh.Front	R.Thigh.Rear	R.Knee.Lat	R.Knee.Med	R.Shank.Upper	R.Shank.Front	R.Shank.Rear	R.Ankle.Lat	R.Ankle.Med	R.Heel	R.Midfoot.Sup	R.Midfoot.Lat	R.Toe.Lat	R.Toe.Med	R.Toe.Tip	L.Thigh.Upper	L.Thigh.Front	L.Thigh.Rear	L.Knee.Lat	L.Knee.Med	L.Shank.Upper	L.Shank.Front	L.Shank.Rear	L.Ankle.Lat	L.Ankle.Med	L.Heel	L.Midfoot.Sup	L.Midfoot.Lat	L.Toe.Lat	L.Toe.Med	L.Toe.Tip																																																																														
 	 	X1	Y1	Z1	X2	Y2	Z2	X3	Y3	Z3	X4	Y4	Z4	X5	Y5	Z5	X6	Y6	Z6	X7	Y7	Z7	X8	Y8	Z8	X9	Y9	Z9	X10	Y10	Z10	X11	Y11	Z11	X12	Y12	Z12	X13	Y13	Z13	X14	Y14	Z14	X15	Y15	Z15	X16	Y16	Z16	X17	Y17	Z17	X18	Y18	Z18	X19	Y19	Z19	X20	Y20	Z20	X21	Y21	Z21	X22	Y22	Z22	X23	Y23	Z23	X24	Y24	Z24	X25	Y25	Z25	X26	Y26	Z26	X27	Y27	Z27	X28	Y28	Z28	X29	Y29	Z29	X30	Y30	Z30	X31	Y31	Z31	X32	Y32	Z32	X33	Y33	Z33	X34	Y34	Z34	X35	Y35	Z35	X36	Y36	Z36	X37	Y37	Z37	X38	Y38	Z38	X39	Y39	Z39
																																																																																																																						
1	0.13333	667.2696319	-0.000992919	1.23E+03	552.6378587	-160.4625222	1350.787489	556.2842187	163.6853836	1364.223679	650.437704	-9.995724821	1604.721429	659.2531015	-119.563877	888.4474878	664.1531621	121.1976851	880.3464823	481.4809919	-5.695750883	911.1592293	578.1588196	-151.852957	616.5962356	617.9279393	-72.89581202	559.3668068	554.9513718	-144.0380039	518.7552933	512.155442	-128.7803171	453.4070991	508.7080469	-28.27664901	439.9388973	457.4973322	-139.9773559	407.8701342	474.3699032	-92.759033	338.0627086	408.4299336	-148.0192813	350.9304247	216.4659926	-126.2596959	194.6573578	230.5097577	-48.83628676	197.2597432	180.9589914	-81.79932302	250.4017068	227.3247029	-50.48617332	131.5120062	209.1978682	-145.6838404	130.9235116	211.7497133	-153.7519611	48.71543733	223.4511099	-57.55224411	50.08136964	239.4503488	-85.7250635	-1.558211538	652.7099644	155.8898652	653.9528564	725.6893665	93.1736068	645.5641627	678.042675	143.1256019	567.1044688	696.944021	130.2344758	458.8387567	697.6737552	33.90932835	459.7583788	703.2692792	146.028905	388.8055039	741.4094761	97.96343807	345.3467002	688.1780812	155.397025	351.4485139	701.9446689	125.837295	79.23855683	705.541038	46.58044596	99.42964235	631.0965674	79.29350631	66.88768065	784.0148056	55.87355549	67.10135963	767.7054386	143.3687015	67.32496493	823.5383813	152.6622596	45.93734787	838.6559957	62.03409965	45.71212893	882.3087973	84.48225282	45.85000499
2	0.14167	676.9010436	-0.000992919	1.24E+03	562.5209717	-160.4625222	1352.226601	566.1963039	163.6853836	1365.654895	660.8683025	-9.995724821	1605.949005	668.302219	-119.563877	889.9812873	673.2085185	121.1976851	881.8840589	490.5126666	-5.695750883	912.5560791	592.198803	-151.852957	618.5455433	633.4674307	-72.89581202	562.3878122	571.5868476	-144.0380039	520.1251038	530.5339991	-128.7803171	453.6680369	527.4439725	-28.27664901	440.1133799	476.6281158	-139.9773559	408.2768987	492.6579139	-92.759033	338.2711426	426.8778597	-148.0192813	351.9328471	233.0439556	-126.2596959	197.9853116	247.1180726	-48.83628676	200.4182066	198.3760888	-81.79932302	254.2739886	242.9571598	-50.48617332	134.7036402	224.8235476	-145.6838404	134.3865196	226.1446815	-153.7519611	52.14945983	237.8652116	-57.55224411	53.3401019	253.0897579	-85.7250635	1.466841203	659.7838822	155.8898652	654.1901782	732.6421407	93.1736068	644.8073492	683.9302504	143.1256019	567.0045052	701.3538732	130.2344758	458.4911758	702.0960765	33.90932835	459.4007641	706.9323504	146.028905	388.399623	744.6601582	97.96343807	344.5823348	691.4888024	155.397025	351.186913	702.6823895	125.837295	78.85901645	706.4694038	46.58044596	99.01521468	631.8397869	79.29350631	66.63911165	784.7581739	55.87355549	66.62690081	768.4491549	143.3687015	66.87459793	824.2504431	152.6622596	45.40452823	839.3677084	62.03409965	45.15697792	883.020666	84.48225282	45.23037027
3	0.15	686.511707	-0.000992919	1.24E+03	572.3825909	-160.4625222	1353.670533	576.0867318	163.6853836	1367.090909	671.2741829	-9.995724821	1607.181299	677.3306119	-119.563877	891.5145549	682.2426199	121.1976851	883.4207881	499.5251853	-5.695750883	913.9639741	606.20479	-151.852957	620.6317355	648.9461206	-72.89581202	565.5865808	588.2064464	-144.0380039	521.6999648	548.9279203	-128.7803171	454.1790385	546.1979336	-28.27664901	440.5473048	495.8036541	-139.9773559	408.9249442	511.035178	-92.759033	338.7411783	445.4149706	-148.0192813	353.1511088	249.8404612	-126.2596959	201.4209624	263.9413717	-48.83628676	203.6934218	215.9190892	-81.79932302	258.1741245	258.9183163	-50.48617332	138.0258553	240.7820982	-145.6838404	137.9480704	241.0178401	-153.7519611	55.70073718	252.7530624	-57.55224411	56.73660053	267.2917151	-85.7250635	4.666939824	666.8122821	155.8898652	654.459678	739.535663	93.1736068	644.0831089	689.766197	143.1256019	566.9524986	705.7068415	130.2344758	458.2114247	706.4613928	33.90932835	459.1107962	710.5401304	146.028905	388.0699071	747.8545695	97.96343807	343.9000659	694.7476168	155.397025	351.0039459	703.3819412	125.837295	78.58289665	707.3581743	46.58044596	98.70262268	632.5450546	79.29350631	66.49382693	785.4632557	55.87355549	66.25510833	769.1546216	143.3687015	66.52696263	824.9240464	152.6622596	44.97426178	840.0409283	62.03409965	44.70431955	883.6939468	84.48225282	44.7130516
4	0.15833	696.0821449	-0.000992919	1.24E+03	582.2018622	-160.4625222	1355.124926	585.9344918	163.6853836	1368.537407	681.631542	-9.995724821	1608.425133	686.3188892	-119.563877	893.0462505	691.2355957	121.1976851	884.955337	508.5004581	-5.695750883	915.3924303	620.1545411	-151.852957	622.8605953	664.3422944	-72.89581202	568.9696606	604.7892557	-144.0380039	523.4858318	567.3173083	-128.7803171	454.9458343	564.9502168	-28.27664901	441.246423	515.008489	-139.9773559	409.7945699	529.5313212	-92.759033	339.4607398	464.0597995	-148.0192813	354.5318232	266.9647952	-126.2596959	204.7820808	281.0879098	-48.83628676	206.912194	233.6006714	-81.79932302	261.8627577	275.421311	-50.48617332	141.2991885	257.2852007	-145.6838404	141.3990024	256.7155423	-153.7519611	59.15330408	268.4603454	-57.55224411	60.07420315	282.4884201	-85.7250635	7.864672356	673.7687614	155.8898652	654.7651616	746.343334	93.1736068	643.3943778	695.5230311	143.1256019	566.9520623	709.9741109	130.2344758	458.0030302	710.7408991	33.90932835	458.8919918	714.0658527	146.028905	387.8200203	750.9680627	97.96343807	343.3052011	697.9294447	155.397025	350.9024729	704.0308848	125.837295	78.41292804	708.1939853	46.58044596	98.49482037	633.1997677	79.29350631	66.45449587	786.1174451	55.87355549	65.98846242	769.8092331	143.3687015	66.28455945	825.5465579	152.6622596	44.64898035	840.6630219	62.03409965	44.35656696	884.3160051	84.48225282	44.30040816
5	0.16667	705.5946675	-0.000992919	1.24E+03	591.9595462	-160.4625222	1356.593232	595.7201705	163.6853836	1369.99789	691.917854	-9.995724821	1609.685295	695.2504557	-119.563877	894.5743092	700.1704611	121.1976851	886.4854014	517.4229273	-5.695750883	916.8479776	634.0273402	-151.852957	625.2359139	679.6350271	-72.89581202	572.541234	621.3147792	-144.0380039	525.4870973	585.6819858	-128.7803171	455.9731984	583.6806768	-28.27664901	442.2155913	534.2249525	-139.9773559	410.8678286	548.1695618	-92.759033	340.4170785	482.8240451	-148.0192813	356.0254467	284.5056227	-126.2596959	207.8997251	298.6457579	-48.83628676	209.9137571	251.426383	-81.79932302	265.1257897	292.6425715	-50.48617332	144.3542454	274.5071888	-145.6838404	144.5449053	273.5255528	-153.7519611	62.30309238	285.2748215	-57.55224411	63.16514789	299.0411925	-85.7250635	10.88600277	680.6316703	155.8898652	655.1090285	753.0433388	93.1736068	642.7432056	701.1786267	143.1256019	567.0056163	714.1329834	130.2344758	457.868501	714.9119006	33.90932835	458.7468544	717.4882327	146.028905	387.6524737	753.9808392	97.96343807	342.801254	701.0140914	155.397025	350.8843947	704.6174509	125.837295	78.35036848	708.9644608	46.58044596	98.39325526	633.7920858	79.29350631	66.52214699	786.7088992	55.87355549	65.82830654	770.4011464	143.3687015	66.14869823	826.1061779	152.6622596	44.43010904	841.2221895	62.03409965	44.11517638	884.8750407	84.48225282	43.99398607
6	0.175	715.0339811	-0.000992919	1.24E+03	601.6386066	-160.4625222	1358.075868	605.426537	163.6853836	1371.472835	702.112417	-9.995724821	1610.963727	704.1123613	-119.563877	896.0952068	709.0339952	121.1976851	888.0072897	526.2803518	-5.695750883	918.3330698	647.804497	-151.852957	627.7582734	694.8045495	-72.89581202	576.3016366	637.7630226	-144.0380039	527.7052654	604.0012495	-128.7803171	457.2636528	602.368432	-28.27664901	443.4574622	553.4332856	-139.9773559	412.1282131	566.9650454	-92.759033	341.5970016	501.7120632	-148.0192813	357.5878126	302.5295111	-126.2596959	210.6261271	316.6811995	-48.83628676	212.5573097	269.400529	-81.79932302	267.7815385	310.7149003	-50.48617332	147.043546	292.5793685	-145.6838404	147.2194604	291.6646017	-153.7519611	64.97687654	303.4131656	-57.55224411	65.84848481	317.222039	-85.7250635	13.58055008	687.3855683	155.8898652	655.4915442	759.6201588	93.1736068	642.1301356	706.7178215	143.1256019	567.1136474	718.1686624	130.2344758	457.8085535	718.9595965	33.90932835	458.6761019	720.7931724	146.028905	387.5678739	756.8795221	97.96343807	342.3891444	703.9878796	155.397025	350.9499672	705.1315428	125.837295	78.39452018	709.6592575	46.58044596	98.39736009	634.3119572	79.29350631	66.69561154	787.2275703	55.87355549	65.77446782	770.9203118	143.3687015	66.1190999	826.5929981	152.6622596	44.31773165	841.7085249	62.03409965	43.98033006	885.3611476	84.48225282	43.79425186
7	0.18333	724.3876066	-0.000992919	1.24E+03	611.2246787	-160.4625222	1359.569676	615.0390176	163.6853836	1372.959148	712.1969338	-9.995724821	1612.258931	712.8956877	-119.563877	897.603635	717.8171434	121.1976851	889.5156095	535.0641682	-5.695750883	919.8454163	661.469603	-151.852957	630.4240784	709.8324921	-72.89581202	580.2461813	654.1145159	-144.0380039	530.1377966	622.2536719	-128.7803171	458.816238	620.9916346	-28.27664901	444.9712297	572.6119329	-139.9773559	413.5600318	585.9239843	-92.759033	342.9870228	520.7211159	-148.0192813	359.1809619	321.0818731	-126.2596959	212.8402676	335.2395067	-48.83628676	214.7273708	287.53178	-81.79932302	269.6842804	329.725682	-50.48617332	149.2508351	311.5893496	-145.6838404	149.2944692	311.2744618	-153.7519611	67.04740091	323.0163559	-57.55224411	68.00467679	337.20609	-85.7250635	15.83885048	694.0217967	155.8898652	655.910227	766.0651839	93.1736068	641.5535676	712.1329806	143.1256019	567.2740398	722.0747981	130.2344758	457.8213763	722.8776253	33.90932835	458.6779306	723.9744178	146.028905	387.5642277	759.6578882	97.96343807	342.0666215	706.8444047	155.397025	351.0970971	705.5661173	125.837295	78.54224824	710.2713969	46.58044596	98.50406552	634.7525011	79.29350631	66.97100052	787.6665929	55.87355549	65.82480457	771.3598593	143.3687015	66.19343645	827.0003991	152.6622596	44.31015565	842.115413	62.03409965	43.95050818	885.7677146	84.48225282	43.70018453
